<svg xmlns="http://www.w3.org/2000/svg" xmlns:xlink="http://www.w3.org/1999/xlink" width="500" zoomAndPan="magnify" viewBox="0 0 375 149.999998" height="200" preserveAspectRatio="xMidYMid meet" version="1.0"><defs><g/><clipPath id="b69a14a5ef"><path d="M 0 5.628906 L 375 5.628906 L 375 142.222656 L 0 142.222656 Z M 0 5.628906 " clip-rule="nonzero"/></clipPath><clipPath id="973b727cc0"><path d="M 287.296875 14.820312 L 347.972656 14.820312 L 347.972656 75.492188 L 287.296875 75.492188 Z M 287.296875 14.820312 " clip-rule="nonzero"/></clipPath><clipPath id="6343e831d7"><path d="M 317.636719 14.820312 C 300.878906 14.820312 287.296875 28.402344 287.296875 45.15625 C 287.296875 61.910156 300.878906 75.492188 317.636719 75.492188 C 334.390625 75.492188 347.972656 61.910156 347.972656 45.15625 C 347.972656 28.402344 334.390625 14.820312 317.636719 14.820312 Z M 317.636719 14.820312 " clip-rule="nonzero"/></clipPath><clipPath id="c21e409b70"><path d="M 289 16 L 346 16 L 346 74 L 289 74 Z M 289 16 " clip-rule="nonzero"/></clipPath><clipPath id="3b8beabb22"><path d="M 316.054688 4.882812 L 357.714844 44.210938 L 321.664062 82.398438 L 280.007812 43.070312 Z M 316.054688 4.882812 " clip-rule="nonzero"/></clipPath><clipPath id="908047e22a"><path d="M 316.054688 4.882812 L 357.714844 44.210938 L 321.664062 82.398438 L 280.007812 43.070312 Z M 316.054688 4.882812 " clip-rule="nonzero"/></clipPath></defs><rect x="-37.5" width="450" fill="#ffffff" y="-15" height="179.999997" fill-opacity="1"/><rect x="-37.5" width="450" fill="#ffffff" y="-15" height="179.999997" fill-opacity="1"/><g clip-path="url(#b69a14a5ef)"><path fill="#0c6ffc" d="M 0 5.628906 L 375.097656 5.628906 L 375.097656 142.222656 L 0 142.222656 Z M 0 5.628906 " fill-opacity="1" fill-rule="nonzero"/></g><g clip-path="url(#973b727cc0)"><g clip-path="url(#6343e831d7)"><path fill="#ffffff" d="M 287.296875 14.820312 L 347.972656 14.820312 L 347.972656 75.492188 L 287.296875 75.492188 Z M 287.296875 14.820312 " fill-opacity="1" fill-rule="nonzero"/></g></g><g clip-path="url(#c21e409b70)"><g clip-path="url(#3b8beabb22)"><g clip-path="url(#908047e22a)"><path fill="#0c6ffc" d="M 336.734375 24.402344 C 325.433594 13.734375 307.558594 14.25 296.886719 25.550781 C 289.78125 33.078125 287.664062 43.511719 290.363281 52.800781 L 294.570312 51.757812 C 292.210938 43.855469 293.984375 34.941406 300.042969 28.527344 C 309.070312 18.964844 324.195312 18.527344 333.757812 27.554688 C 343.320312 36.582031 343.753906 51.710938 334.726562 61.273438 C 328.671875 67.6875 319.875 69.972656 311.851562 68.070312 L 311.050781 72.332031 C 320.480469 74.492188 330.777344 71.777344 337.882812 64.25 C 348.550781 52.949219 348.035156 35.070312 336.734375 24.402344 Z M 330.78125 30.710938 C 322.957031 23.324219 310.582031 23.679688 303.195312 31.503906 C 298.1875 36.808594 296.75 44.203125 298.773438 50.71875 L 302.984375 49.671875 C 301.292969 44.546875 302.390625 38.675781 306.347656 34.480469 C 312.09375 28.394531 321.71875 28.117188 327.804688 33.863281 C 333.890625 39.609375 334.167969 49.230469 328.421875 55.316406 C 324.460938 59.511719 318.660156 60.945312 313.445312 59.554688 L 312.644531 63.8125 C 319.265625 65.457031 326.566406 63.597656 331.574219 58.296875 C 338.960938 50.472656 338.605469 38.09375 330.78125 30.710938 Z M 324.828125 37.015625 C 320.480469 32.914062 313.605469 33.109375 309.5 37.457031 C 306.589844 40.539062 305.886719 44.878906 307.25 48.617188 L 311.457031 47.574219 C 310.410156 45.242188 310.792969 42.40625 312.65625 40.433594 C 315.117188 37.828125 319.242188 37.707031 321.851562 40.167969 C 324.457031 42.632812 324.578125 46.757812 322.113281 49.363281 C 320.253906 51.335938 317.441406 51.878906 315.054688 50.964844 L 314.253906 55.230469 C 318.0625 56.375 322.359375 55.421875 325.269531 52.339844 C 329.371094 47.996094 329.171875 41.121094 324.828125 37.015625 Z M 318.871094 43.324219 C 318.664062 43.125 318.425781 42.976562 318.15625 42.875 C 317.886719 42.769531 317.609375 42.722656 317.320312 42.730469 C 317.035156 42.742188 316.761719 42.804688 316.496094 42.921875 C 316.234375 43.039062 316.003906 43.203125 315.808594 43.410156 C 315.609375 43.621094 315.460938 43.859375 315.359375 44.128906 C 315.257812 44.394531 315.210938 44.675781 315.21875 44.960938 C 315.226562 45.25 315.289062 45.523438 315.40625 45.785156 C 315.523438 46.046875 315.6875 46.277344 315.894531 46.476562 C 316.105469 46.671875 316.34375 46.824219 316.613281 46.925781 C 316.882812 47.027344 317.160156 47.074219 317.445312 47.066406 C 317.734375 47.058594 318.007812 46.996094 318.273438 46.878906 C 318.535156 46.761719 318.765625 46.597656 318.960938 46.386719 C 319.160156 46.179688 319.308594 45.941406 319.410156 45.671875 C 319.511719 45.402344 319.558594 45.125 319.550781 44.835938 C 319.542969 44.550781 319.480469 44.273438 319.363281 44.011719 C 319.246094 43.75 319.082031 43.519531 318.871094 43.324219 Z M 318.871094 43.324219 " fill-opacity="1" fill-rule="nonzero"/></g></g></g><g fill="#ffffff" fill-opacity="1"><g transform="translate(49.996287, 110.305384)"><g><path d="M 32.265625 -59.578125 C 40.097656 -59.578125 46.101562 -57.867188 50.28125 -54.453125 C 54.457031 -51.046875 56.546875 -45.863281 56.546875 -38.90625 L 56.546875 0 L 45.421875 0 L 42.34375 -7.9375 L 41.921875 -7.9375 C 40.253906 -5.84375 38.550781 -4.132812 36.8125 -2.8125 C 35.070312 -1.488281 33.066406 -0.515625 30.796875 0.109375 C 28.535156 0.734375 25.789062 1.046875 22.5625 1.046875 C 19.113281 1.046875 16.019531 0.382812 13.28125 -0.9375 C 10.550781 -2.257812 8.398438 -4.285156 6.828125 -7.015625 C 5.265625 -9.753906 4.484375 -13.226562 4.484375 -17.4375 C 4.484375 -23.632812 6.660156 -28.203125 11.015625 -31.140625 C 15.367188 -34.085938 21.894531 -35.71875 30.59375 -36.03125 L 40.734375 -36.34375 L 40.734375 -38.90625 C 40.734375 -41.96875 39.929688 -44.210938 38.328125 -45.640625 C 36.722656 -47.066406 34.492188 -47.78125 31.640625 -47.78125 C 28.816406 -47.78125 26.046875 -47.378906 23.328125 -46.578125 C 20.617188 -45.773438 17.90625 -44.765625 15.1875 -43.546875 L 9.921875 -54.296875 C 13.015625 -55.941406 16.484375 -57.234375 20.328125 -58.171875 C 24.179688 -59.109375 28.160156 -59.578125 32.265625 -59.578125 Z M 40.734375 -27.046875 L 34.5625 -26.84375 C 29.414062 -26.695312 25.835938 -25.769531 23.828125 -24.0625 C 21.828125 -22.363281 20.828125 -20.117188 20.828125 -17.328125 C 20.828125 -14.898438 21.539062 -13.171875 22.96875 -12.140625 C 24.394531 -11.109375 26.257812 -10.59375 28.5625 -10.59375 C 31.96875 -10.59375 34.847656 -11.601562 37.203125 -13.625 C 39.554688 -15.644531 40.734375 -18.519531 40.734375 -22.25 Z M 40.734375 -27.046875 "/></g></g><g transform="translate(114.589375, 110.305384)"><g><path d="M 40.828125 -59.46875 C 47.410156 -59.46875 52.726562 -56.910156 56.78125 -51.796875 C 60.84375 -46.679688 62.875 -39.179688 62.875 -29.296875 C 62.875 -22.679688 61.914062 -17.117188 60 -12.609375 C 58.082031 -8.097656 55.4375 -4.691406 52.0625 -2.390625 C 48.6875 -0.0976562 44.804688 1.046875 40.421875 1.046875 C 37.597656 1.046875 35.175781 0.691406 33.15625 -0.015625 C 31.132812 -0.734375 29.410156 -1.65625 27.984375 -2.78125 C 26.554688 -3.914062 25.320312 -5.128906 24.28125 -6.421875 L 23.4375 -6.421875 C 23.71875 -5.023438 23.925781 -3.597656 24.0625 -2.140625 C 24.207031 -0.679688 24.28125 0.742188 24.28125 2.140625 L 24.28125 25.6875 L 8.359375 25.6875 L 8.359375 -58.375 L 21.296875 -58.375 L 23.546875 -50.8125 L 24.28125 -50.8125 C 25.320312 -52.375 26.59375 -53.816406 28.09375 -55.140625 C 29.59375 -56.460938 31.394531 -57.515625 33.5 -58.296875 C 35.601562 -59.078125 38.046875 -59.46875 40.828125 -59.46875 Z M 35.71875 -46.734375 C 32.925781 -46.734375 30.710938 -46.15625 29.078125 -45 C 27.441406 -43.851562 26.25 -42.128906 25.5 -39.828125 C 24.757812 -37.535156 24.351562 -34.632812 24.28125 -31.125 L 24.28125 -29.390625 C 24.28125 -25.640625 24.632812 -22.457031 25.34375 -19.84375 C 26.0625 -17.226562 27.265625 -15.242188 28.953125 -13.890625 C 30.640625 -12.535156 32.960938 -11.859375 35.921875 -11.859375 C 38.359375 -11.859375 40.359375 -12.535156 41.921875 -13.890625 C 43.492188 -15.242188 44.671875 -17.234375 45.453125 -19.859375 C 46.234375 -22.492188 46.625 -25.707031 46.625 -29.5 C 46.625 -35.207031 45.734375 -39.503906 43.953125 -42.390625 C 42.179688 -45.285156 39.4375 -46.734375 35.71875 -46.734375 Z M 35.71875 -46.734375 "/></g></g><g transform="translate(182.263297, 110.305384)"><g><path d="M 40.828125 -59.46875 C 47.410156 -59.46875 52.726562 -56.910156 56.78125 -51.796875 C 60.84375 -46.679688 62.875 -39.179688 62.875 -29.296875 C 62.875 -22.679688 61.914062 -17.117188 60 -12.609375 C 58.082031 -8.097656 55.4375 -4.691406 52.0625 -2.390625 C 48.6875 -0.0976562 44.804688 1.046875 40.421875 1.046875 C 37.597656 1.046875 35.175781 0.691406 33.15625 -0.015625 C 31.132812 -0.734375 29.410156 -1.65625 27.984375 -2.78125 C 26.554688 -3.914062 25.320312 -5.128906 24.28125 -6.421875 L 23.4375 -6.421875 C 23.71875 -5.023438 23.925781 -3.597656 24.0625 -2.140625 C 24.207031 -0.679688 24.28125 0.742188 24.28125 2.140625 L 24.28125 25.6875 L 8.359375 25.6875 L 8.359375 -58.375 L 21.296875 -58.375 L 23.546875 -50.8125 L 24.28125 -50.8125 C 25.320312 -52.375 26.59375 -53.816406 28.09375 -55.140625 C 29.59375 -56.460938 31.394531 -57.515625 33.5 -58.296875 C 35.601562 -59.078125 38.046875 -59.46875 40.828125 -59.46875 Z M 35.71875 -46.734375 C 32.925781 -46.734375 30.710938 -46.15625 29.078125 -45 C 27.441406 -43.851562 26.25 -42.128906 25.5 -39.828125 C 24.757812 -37.535156 24.351562 -34.632812 24.28125 -31.125 L 24.28125 -29.390625 C 24.28125 -25.640625 24.632812 -22.457031 25.34375 -19.84375 C 26.0625 -17.226562 27.265625 -15.242188 28.953125 -13.890625 C 30.640625 -12.535156 32.960938 -11.859375 35.921875 -11.859375 C 38.359375 -11.859375 40.359375 -12.535156 41.921875 -13.890625 C 43.492188 -15.242188 44.671875 -17.234375 45.453125 -19.859375 C 46.234375 -22.492188 46.625 -25.707031 46.625 -29.5 C 46.625 -35.207031 45.734375 -39.503906 43.953125 -42.390625 C 42.179688 -45.285156 39.4375 -46.734375 35.71875 -46.734375 Z M 35.71875 -46.734375 "/></g></g><g transform="translate(249.937219, 110.305384)"><g><path d="M 61.40625 -29.296875 C 61.40625 -24.421875 60.75 -20.101562 59.4375 -16.34375 C 58.132812 -12.582031 56.238281 -9.40625 53.75 -6.8125 C 51.257812 -4.21875 48.265625 -2.257812 44.765625 -0.9375 C 41.273438 0.382812 37.335938 1.046875 32.953125 1.046875 C 28.835938 1.046875 25.066406 0.382812 21.640625 -0.9375 C 18.210938 -2.257812 15.234375 -4.21875 12.703125 -6.8125 C 10.179688 -9.40625 8.234375 -12.582031 6.859375 -16.34375 C 5.484375 -20.101562 4.796875 -24.421875 4.796875 -29.296875 C 4.796875 -35.765625 5.945312 -41.242188 8.25 -45.734375 C 10.550781 -50.234375 13.820312 -53.644531 18.0625 -55.96875 C 22.3125 -58.300781 27.378906 -59.46875 33.265625 -59.46875 C 38.722656 -59.46875 43.566406 -58.300781 47.796875 -55.96875 C 52.023438 -53.644531 55.347656 -50.234375 57.765625 -45.734375 C 60.191406 -41.242188 61.40625 -35.765625 61.40625 -29.296875 Z M 21.046875 -29.296875 C 21.046875 -25.460938 21.460938 -22.238281 22.296875 -19.625 C 23.128906 -17.019531 24.429688 -15.054688 26.203125 -13.734375 C 27.984375 -12.410156 30.300781 -11.75 33.15625 -11.75 C 35.976562 -11.75 38.265625 -12.410156 40.015625 -13.734375 C 41.773438 -15.054688 43.0625 -17.019531 43.875 -19.625 C 44.695312 -22.238281 45.109375 -25.460938 45.109375 -29.296875 C 45.109375 -33.160156 44.695312 -36.367188 43.875 -38.921875 C 43.0625 -41.484375 41.765625 -43.40625 39.984375 -44.6875 C 38.210938 -45.976562 35.898438 -46.625 33.046875 -46.625 C 28.835938 -46.625 25.785156 -45.175781 23.890625 -42.28125 C 21.992188 -39.394531 21.046875 -35.066406 21.046875 -29.296875 Z M 21.046875 -29.296875 "/></g></g></g></svg>